<?xml version="1.0" encoding="UTF-8" standalone="no"?>
<!DOCTYPE svg PUBLIC "-//W3C//DTD SVG 1.1//EN"
 "http://www.w3.org/Graphics/SVG/1.1/DTD/svg11.dtd">
<!-- Generated by graphviz version 2.38.0 (20140413.2041)
 -->
<!-- Title: G Pages: 1 -->
<svg width="679pt" height="814pt"
 viewBox="0.00 0.00 679.19 814.00" xmlns="http://www.w3.org/2000/svg" xmlns:xlink="http://www.w3.org/1999/xlink">
<g id="graph0" class="graph" transform="scale(1 1) rotate(0) translate(4 810)">
<title>G</title>
<polygon fill="white" stroke="none" points="-4,4 -4,-810 675.189,-810 675.189,4 -4,4"/>
<!-- l1 -->
<g id="node1" class="node"><title>l1</title>
<polygon fill="none" stroke="black" points="458.292,-105.562 431.292,-118 404.292,-105.562 404.317,-85.4377 458.267,-85.4377 458.292,-105.562"/>
<text text-anchor="middle" x="431.292" y="-96.3" font-family="Times New Roman,serif" font-size="14.00">l1</text>
</g>
<!-- 1 -->
<g id="node14" class="node"><title>1</title>
<polygon fill="none" stroke="black" points="371.292,-46 341.497,-11.5 401.087,-11.5 371.292,-46"/>
<text text-anchor="middle" x="371.292" y="-19.3" font-family="Times New Roman,serif" font-size="14.00">1</text>
</g>
<!-- l1&#45;&gt;1 -->
<g id="edge3" class="edge"><title>l1&#45;&gt;1</title>
<path fill="none" stroke="black" d="M420.287,-85.2438C410.962,-73.588 397.478,-56.7331 387.016,-43.6546"/>
<polygon fill="black" stroke="black" points="389.63,-41.3204 380.65,-35.6982 384.164,-45.6933 389.63,-41.3204"/>
</g>
<!-- 5 -->
<g id="node17" class="node"><title>5</title>
<polygon fill="none" stroke="black" points="449.292,-46 419.497,-11.5 479.087,-11.5 449.292,-46"/>
<text text-anchor="middle" x="449.292" y="-19.3" font-family="Times New Roman,serif" font-size="14.00">5</text>
</g>
<!-- l1&#45;&gt;5 -->
<g id="edge4" class="edge"><title>l1&#45;&gt;5</title>
<path fill="none" stroke="black" d="M434.593,-85.2438C436.862,-75.7897 439.952,-62.915 442.714,-51.4095"/>
<polygon fill="black" stroke="black" points="446.194,-51.9062 445.124,-41.3655 439.387,-50.2726 446.194,-51.9062"/>
</g>
<!-- l2 -->
<g id="node2" class="node"><title>l2</title>
<polygon fill="none" stroke="black" points="572.292,-105.562 545.292,-118 518.292,-105.562 518.317,-85.4377 572.267,-85.4377 572.292,-105.562"/>
<text text-anchor="middle" x="545.292" y="-96.3" font-family="Times New Roman,serif" font-size="14.00">l2</text>
</g>
<!-- 2 -->
<g id="node15" class="node"><title>2</title>
<polygon fill="none" stroke="black" points="545.292,-46 515.497,-11.5 575.087,-11.5 545.292,-46"/>
<text text-anchor="middle" x="545.292" y="-19.3" font-family="Times New Roman,serif" font-size="14.00">2</text>
</g>
<!-- l2&#45;&gt;2 -->
<g id="edge7" class="edge"><title>l2&#45;&gt;2</title>
<path fill="none" stroke="black" d="M545.292,-85.2438C545.292,-77.1462 545.292,-66.5393 545.292,-56.4326"/>
<polygon fill="black" stroke="black" points="548.792,-56.2075 545.292,-46.2076 541.792,-56.2076 548.792,-56.2075"/>
</g>
<!-- l3 -->
<g id="node3" class="node"><title>l3</title>
<polygon fill="none" stroke="black" points="665.292,-335.562 638.292,-348 611.292,-335.562 611.317,-315.438 665.267,-315.438 665.292,-335.562"/>
<text text-anchor="middle" x="638.292" y="-326.3" font-family="Times New Roman,serif" font-size="14.00">l3</text>
</g>
<!-- 3 -->
<g id="node16" class="node"><title>3</title>
<polygon fill="none" stroke="black" points="641.292,-276 611.497,-241.5 671.087,-241.5 641.292,-276"/>
<text text-anchor="middle" x="641.292" y="-249.3" font-family="Times New Roman,serif" font-size="14.00">3</text>
</g>
<!-- l3&#45;&gt;3 -->
<g id="edge10" class="edge"><title>l3&#45;&gt;3</title>
<path fill="none" stroke="black" d="M638.842,-315.244C639.18,-306.807 639.626,-295.647 640.045,-285.166"/>
<polygon fill="black" stroke="black" points="643.548,-285.17 640.45,-275.038 636.553,-284.89 643.548,-285.17"/>
</g>
<!-- p1 -->
<g id="node4" class="node"><title>p1</title>
<polygon fill="none" stroke="black" points="343.292,-335.562 316.292,-348 289.292,-335.562 289.317,-315.438 343.267,-315.438 343.292,-335.562"/>
<text text-anchor="middle" x="316.292" y="-326.3" font-family="Times New Roman,serif" font-size="14.00">p1</text>
</g>
<!-- plus l1 l2 -->
<g id="node11" class="node"><title>plus l1 l2</title>
<polygon fill="none" stroke="black" points="278.292,-276 191.107,-241.5 365.476,-241.5 278.292,-276"/>
<text text-anchor="middle" x="278.292" y="-249.3" font-family="Times New Roman,serif" font-size="14.00">plus l1 l2</text>
</g>
<!-- p1&#45;&gt;plus l1 l2 -->
<g id="edge21" class="edge"><title>p1&#45;&gt;plus l1 l2</title>
<path fill="none" stroke="black" d="M309.322,-315.244C304.568,-305.861 298.107,-293.109 292.311,-281.67"/>
<polygon fill="black" stroke="black" points="295.293,-279.812 287.652,-272.473 289.049,-282.975 295.293,-279.812"/>
</g>
<!-- p2 -->
<g id="node5" class="node"><title>p2</title>
<polygon fill="none" stroke="black" points="322.292,-569.562 295.292,-582 268.292,-569.562 268.317,-549.438 322.267,-549.438 322.292,-569.562"/>
<text text-anchor="middle" x="295.292" y="-560.3" font-family="Times New Roman,serif" font-size="14.00">p2</text>
</g>
<!-- plus p1 l3 -->
<g id="node12" class="node"><title>plus p1 l3</title>
<polygon fill="none" stroke="black" points="92.2918,-510 0.207721,-475.5 184.376,-475.5 92.2918,-510"/>
<text text-anchor="middle" x="92.2918" y="-483.3" font-family="Times New Roman,serif" font-size="14.00">plus p1 l3</text>
</g>
<!-- p2&#45;&gt;plus p1 l3 -->
<g id="edge23" class="edge"><title>p2&#45;&gt;plus p1 l3</title>
<path fill="none" stroke="black" d="M267.914,-552.885C232.721,-539.883 171.388,-517.223 131.316,-502.418"/>
<polygon fill="black" stroke="black" points="132.457,-499.108 121.864,-498.926 130.031,-505.674 132.457,-499.108"/>
</g>
<!-- plus l3 p1 -->
<g id="node13" class="node"><title>plus l3 p1</title>
<polygon fill="none" stroke="black" points="295.292,-510 203.208,-475.5 387.376,-475.5 295.292,-510"/>
<text text-anchor="middle" x="295.292" y="-483.3" font-family="Times New Roman,serif" font-size="14.00">plus l3 p1</text>
</g>
<!-- p2&#45;&gt;plus l3 p1 -->
<g id="edge22" class="edge"><title>p2&#45;&gt;plus l3 p1</title>
<path fill="none" stroke="black" d="M295.292,-549.244C295.292,-541.146 295.292,-530.539 295.292,-520.433"/>
<polygon fill="black" stroke="black" points="298.792,-520.208 295.292,-510.208 291.792,-520.208 298.792,-520.208"/>
</g>
<!-- eval p1 -->
<g id="node6" class="node"><title>eval p1</title>
<polygon fill="none" stroke="black" points="457.292,-505 405.846,-487 457.292,-469 508.737,-487 457.292,-505"/>
<text text-anchor="middle" x="457.292" y="-483.3" font-family="Times New Roman,serif" font-size="14.00">eval p1</text>
</g>
<!-- e_p1 -->
<g id="node18" class="node"><title>e_p1</title>
<polygon fill="none" stroke="black" points="456.292,-428 412.292,-428 412.292,-384 456.292,-384 456.292,-428"/>
<text text-anchor="middle" x="434.292" y="-402.3" font-family="Times New Roman,serif" font-size="14.00">e_p1</text>
</g>
<!-- eval p1&#45;&gt;e_p1 -->
<g id="edge11" class="edge"><title>eval p1&#45;&gt;e_p1</title>
<path fill="none" stroke="black" d="M452.748,-470.392C450.062,-461.166 446.564,-449.153 443.337,-438.069"/>
<polygon fill="black" stroke="black" points="446.637,-436.881 440.481,-428.258 439.916,-438.838 446.637,-436.881"/>
</g>
<!-- eval p2 -->
<g id="node7" class="node"><title>eval p2</title>
<polygon fill="none" stroke="black" points="396.292,-734 344.846,-716 396.292,-698 447.737,-716 396.292,-734"/>
<text text-anchor="middle" x="396.292" y="-712.3" font-family="Times New Roman,serif" font-size="14.00">eval p2</text>
</g>
<!-- e_p2 -->
<g id="node19" class="node"><title>e_p2</title>
<polygon fill="none" stroke="black" points="418.292,-662 374.292,-662 374.292,-618 418.292,-618 418.292,-662"/>
<text text-anchor="middle" x="396.292" y="-636.3" font-family="Times New Roman,serif" font-size="14.00">e_p2</text>
</g>
<!-- eval p2&#45;&gt;e_p2 -->
<g id="edge14" class="edge"><title>eval p2&#45;&gt;e_p2</title>
<path fill="none" stroke="black" d="M396.292,-697.837C396.292,-690.165 396.292,-680.878 396.292,-672.053"/>
<polygon fill="black" stroke="black" points="399.792,-672.032 396.292,-662.032 392.792,-672.032 399.792,-672.032"/>
</g>
<!-- eval l1 -->
<g id="node8" class="node"><title>eval l1</title>
<polygon fill="none" stroke="black" points="431.292,-271 383.699,-253 431.292,-235 478.885,-253 431.292,-271"/>
<text text-anchor="middle" x="431.292" y="-249.3" font-family="Times New Roman,serif" font-size="14.00">eval l1</text>
</g>
<!-- e_l1 -->
<g id="node20" class="node"><title>e_l1</title>
<polygon fill="none" stroke="black" points="451.292,-194 411.292,-194 411.292,-154 451.292,-154 451.292,-194"/>
<text text-anchor="middle" x="431.292" y="-170.3" font-family="Times New Roman,serif" font-size="14.00">e_l1</text>
</g>
<!-- eval l1&#45;&gt;e_l1 -->
<g id="edge1" class="edge"><title>eval l1&#45;&gt;e_l1</title>
<path fill="none" stroke="black" d="M431.292,-234.911C431.292,-225.967 431.292,-214.762 431.292,-204.469"/>
<polygon fill="black" stroke="black" points="434.792,-204.207 431.292,-194.207 427.792,-204.207 434.792,-204.207"/>
</g>
<!-- eval l2 -->
<g id="node9" class="node"><title>eval l2</title>
<polygon fill="none" stroke="black" points="545.292,-271 497.699,-253 545.292,-235 592.885,-253 545.292,-271"/>
<text text-anchor="middle" x="545.292" y="-249.3" font-family="Times New Roman,serif" font-size="14.00">eval l2</text>
</g>
<!-- e_l2 -->
<g id="node21" class="node"><title>e_l2</title>
<polygon fill="none" stroke="black" points="565.292,-194 525.292,-194 525.292,-154 565.292,-154 565.292,-194"/>
<text text-anchor="middle" x="545.292" y="-170.3" font-family="Times New Roman,serif" font-size="14.00">e_l2</text>
</g>
<!-- eval l2&#45;&gt;e_l2 -->
<g id="edge5" class="edge"><title>eval l2&#45;&gt;e_l2</title>
<path fill="none" stroke="black" d="M545.292,-234.911C545.292,-225.967 545.292,-214.762 545.292,-204.469"/>
<polygon fill="black" stroke="black" points="548.792,-204.207 545.292,-194.207 541.792,-204.207 548.792,-204.207"/>
</g>
<!-- eval l3 -->
<g id="node10" class="node"><title>eval l3</title>
<polygon fill="none" stroke="black" points="620.292,-505 572.699,-487 620.292,-469 667.885,-487 620.292,-505"/>
<text text-anchor="middle" x="620.292" y="-483.3" font-family="Times New Roman,serif" font-size="14.00">eval l3</text>
</g>
<!-- e_l3 -->
<g id="node22" class="node"><title>e_l3</title>
<polygon fill="none" stroke="black" points="652.292,-426 612.292,-426 612.292,-386 652.292,-386 652.292,-426"/>
<text text-anchor="middle" x="632.292" y="-402.3" font-family="Times New Roman,serif" font-size="14.00">e_l3</text>
</g>
<!-- eval l3&#45;&gt;e_l3 -->
<g id="edge8" class="edge"><title>eval l3&#45;&gt;e_l3</title>
<path fill="none" stroke="black" d="M622.778,-469.631C624.25,-459.943 626.157,-447.387 627.877,-436.064"/>
<polygon fill="black" stroke="black" points="631.344,-436.542 629.386,-426.13 624.424,-435.491 631.344,-436.542"/>
</g>
<!-- e_p1&#45;&gt;p1 -->
<g id="edge12" class="edge"><title>e_p1&#45;&gt;p1</title>
<path fill="none" stroke="black" d="M412.097,-391.081C391.743,-378.317 361.658,-359.45 340.648,-346.274"/>
<polygon fill="black" stroke="black" points="342.31,-343.185 331.978,-340.837 338.591,-349.115 342.31,-343.185"/>
</g>
<!-- e_p1_1 -->
<g id="node23" class="node"><title>e_p1_1</title>
<ellipse fill="none" stroke="black" cx="434.292" cy="-330" rx="38.1938" ry="18"/>
<text text-anchor="middle" x="434.292" y="-326.3" font-family="Times New Roman,serif" font-size="14.00">e_p1_1</text>
</g>
<!-- e_p1&#45;&gt;e_p1_1 -->
<g id="edge13" class="edge"><title>e_p1&#45;&gt;e_p1_1</title>
<path fill="none" stroke="black" d="M434.292,-383.993C434.292,-376.061 434.292,-366.915 434.292,-358.478"/>
<polygon fill="black" stroke="black" points="437.792,-358.315 434.292,-348.315 430.792,-358.315 437.792,-358.315"/>
</g>
<!-- e_p2&#45;&gt;p2 -->
<g id="edge15" class="edge"><title>e_p2&#45;&gt;p2</title>
<path fill="none" stroke="black" d="M373.877,-622.577C357.149,-610.321 334.394,-593.649 317.674,-581.399"/>
<polygon fill="black" stroke="black" points="319.68,-578.53 309.545,-575.443 315.543,-584.177 319.68,-578.53"/>
</g>
<!-- e_p2_1 -->
<g id="node24" class="node"><title>e_p2_1</title>
<ellipse fill="none" stroke="black" cx="498.292" cy="-564" rx="38.1938" ry="18"/>
<text text-anchor="middle" x="498.292" y="-560.3" font-family="Times New Roman,serif" font-size="14.00">e_p2_1</text>
</g>
<!-- e_p2&#45;&gt;e_p2_1 -->
<g id="edge16" class="edge"><title>e_p2&#45;&gt;e_p2_1</title>
<path fill="none" stroke="black" d="M418.424,-622.943C433.592,-611.939 453.84,-597.25 470.153,-585.415"/>
<polygon fill="black" stroke="black" points="472.238,-588.226 478.277,-579.521 468.127,-582.56 472.238,-588.226"/>
</g>
<!-- e_l1&#45;&gt;l1 -->
<g id="edge2" class="edge"><title>e_l1&#45;&gt;l1</title>
<path fill="none" stroke="black" d="M431.292,-153.705C431.292,-145.973 431.292,-136.92 431.292,-128.52"/>
<polygon fill="black" stroke="black" points="434.792,-128.378 431.292,-118.378 427.792,-128.378 434.792,-128.378"/>
</g>
<!-- e_l2&#45;&gt;l2 -->
<g id="edge6" class="edge"><title>e_l2&#45;&gt;l2</title>
<path fill="none" stroke="black" d="M545.292,-153.705C545.292,-145.973 545.292,-136.92 545.292,-128.52"/>
<polygon fill="black" stroke="black" points="548.792,-128.378 545.292,-118.378 541.792,-128.378 548.792,-128.378"/>
</g>
<!-- e_l3&#45;&gt;l3 -->
<g id="edge9" class="edge"><title>e_l3&#45;&gt;l3</title>
<path fill="none" stroke="black" d="M633.837,-385.943C634.533,-377.356 635.367,-367.067 636.125,-357.726"/>
<polygon fill="black" stroke="black" points="639.616,-357.975 636.936,-347.725 632.639,-357.41 639.616,-357.975"/>
</g>
<!-- e_p1_1&#45;&gt;eval l1 -->
<g id="edge17" class="edge"><title>e_p1_1&#45;&gt;eval l1</title>
<path fill="none" stroke="black" d="M433.611,-311.981C433.247,-302.872 432.789,-291.436 432.377,-281.133"/>
<polygon fill="black" stroke="black" points="435.867,-280.803 431.97,-270.951 428.872,-281.083 435.867,-280.803"/>
</g>
<!-- e_p1_1&#45;&gt;eval l2 -->
<g id="edge18" class="edge"><title>e_p1_1&#45;&gt;eval l2</title>
<path fill="none" stroke="black" d="M455.17,-314.893C473.686,-302.382 500.763,-284.087 520.401,-270.818"/>
<polygon fill="black" stroke="black" points="522.516,-273.613 528.842,-265.114 518.597,-267.813 522.516,-273.613"/>
</g>
<!-- e_p2_1&#45;&gt;eval p1 -->
<g id="edge19" class="edge"><title>e_p2_1&#45;&gt;eval p1</title>
<path fill="none" stroke="black" d="M489.193,-546.355C483.59,-536.106 476.32,-522.809 470.137,-511.497"/>
<polygon fill="black" stroke="black" points="473.126,-509.668 465.258,-502.572 466.984,-513.025 473.126,-509.668"/>
</g>
<!-- e_p2_1&#45;&gt;eval l3 -->
<g id="edge20" class="edge"><title>e_p2_1&#45;&gt;eval l3</title>
<path fill="none" stroke="black" d="M520.668,-549.244C541.374,-536.515 572.166,-517.586 594.028,-504.146"/>
<polygon fill="black" stroke="black" points="596.11,-506.974 602.796,-498.756 592.444,-501.011 596.11,-506.974"/>
</g>
<!-- r1 -->
<g id="node25" class="node"><title>r1</title>
<ellipse fill="none" stroke="black" cx="415.292" cy="-564" rx="27" ry="18"/>
<text text-anchor="middle" x="415.292" y="-560.3" font-family="Times New Roman,serif" font-size="14.00">r1</text>
</g>
<!-- r1&#45;&gt;eval p1 -->
<g id="edge24" class="edge"><title>r1&#45;&gt;eval p1</title>
<path fill="none" stroke="black" d="M424.405,-546.726C430.211,-536.359 437.823,-522.766 444.262,-511.268"/>
<polygon fill="black" stroke="black" points="447.496,-512.655 449.329,-502.22 441.389,-509.235 447.496,-512.655"/>
</g>
<!-- r2 -->
<g id="node26" class="node"><title>r2</title>
<ellipse fill="none" stroke="black" cx="396.292" cy="-788" rx="27" ry="18"/>
<text text-anchor="middle" x="396.292" y="-784.3" font-family="Times New Roman,serif" font-size="14.00">r2</text>
</g>
<!-- r2&#45;&gt;eval p2 -->
<g id="edge25" class="edge"><title>r2&#45;&gt;eval p2</title>
<path fill="none" stroke="black" d="M396.292,-769.697C396.292,-761.983 396.292,-752.712 396.292,-744.112"/>
<polygon fill="black" stroke="black" points="399.792,-744.104 396.292,-734.104 392.792,-744.104 399.792,-744.104"/>
</g>
</g>
</svg>
